<svg width="0" height="0" class="hidden">
  <symbol xmlns="http://www.w3.org/2000/svg" id="angry" viewBox="0 0 24 24">
    <path d="M12,0A12.013,12.013,0,0,0,0,12c.6,15.9,23.4,15.893,24,0A12.013,12.013,0,0,0,12,0ZM5,8A1,1,0,0,1,6,7c3.286,0,4.008,2.5,4,3.474A1.5,1.5,0,1,1,7.47,9.414,2.289,2.289,0,0,0,6,9,1,1,0,0,1,5,8Zm12.746,9.666a1,1,0,0,1-1.411.081,6.357,6.357,0,0,0-8.671,0,1,1,0,0,1-1.33-1.494,8.375,8.375,0,0,1,11.332,0A1,1,0,0,1,17.746,17.666ZM18,9a2.3,2.3,0,0,0-1.471.413A1.5,1.5,0,1,1,14,10.474C13.992,9.5,14.714,7,18,7A1,1,0,0,1,18,9Z"></path>
  </symbol>
  <symbol xmlns="http://www.w3.org/2000/svg" viewBox="0 0 24 24" id="X">
    <path d="m16.192 6.344-4.243 4.242-4.242-4.242-1.414 1.414L10.535 12l-4.242 4.242 1.414 1.414 4.242-4.242 4.243 4.242 1.414-1.414L13.364 12l4.242-4.242z"></path>
  </symbol>
  <symbol xmlns="http://www.w3.org/2000/svg" id="heart" viewBox="0 0 24 24">
    <path d="M17.5.917a6.4,6.4,0,0,0-5.5,3.3A6.4,6.4,0,0,0,6.5.917,6.8,6.8,0,0,0,0,7.967c0,6.775,10.956,14.6,11.422,14.932l.578.409.578-.409C13.044,22.569,24,14.742,24,7.967A6.8,6.8,0,0,0,17.5.917Z"></path>
  </symbol>
  <symbol xmlns="http://www.w3.org/2000/svg" id="laugh" viewBox="0 0 24 24">
    <path d="M6.233,21.883a2.117,2.117,0,0,1-4.233,0c-.053-.927,1.541-4.751,2.6-3.582A7.088,7.088,0,0,1,6.233,21.883ZM21.883,7a2.117,2.117,0,0,0,0-4.233c-.927-.053-4.751,1.541-3.582,2.6A7.088,7.088,0,0,0,21.883,7Zm1.636,1.657c2.866,9.162-6.589,18.055-15.55,14.634.945-2.068-.869-5.184-1.839-6.279a2.632,2.632,0,0,0-2.008-.938H4.113A2.632,2.632,0,0,0,2.108,17a8.892,8.892,0,0,0-.606.81C-4.431,6.956,7.978-4.708,18.429,1.879a10.087,10.087,0,0,0-1.431,1A2.655,2.655,0,0,0,17.01,6.9C18.157,7.925,21.428,9.763,23.519,8.657Zm-12.933.514a1,1,0,0,0,.9.274l3.536-.707a1,1,0,0,0-.393-1.961l-2.064.412.412-2.064a1,1,0,1,0-1.96-.393l-.708,3.536A1,1,0,0,0,10.586,9.171ZM9.171,10.586a.993.993,0,0,0-.9-.274l-3.536.708a1,1,0,1,0,.393,1.96l2.064-.412-.412,2.064a1,1,0,1,0,1.961.393l.707-3.536A1,1,0,0,0,9.171,10.586Zm9.61-.07a1,1,0,0,0-1.817-.329,15.416,15.416,0,0,1-2.7,4.079,15.391,15.391,0,0,1-4.079,2.7,1,1,0,0,0,.329,1.817,6.841,6.841,0,0,0,6.581-1.69A6.828,6.828,0,0,0,18.781,10.516Z"></path>
  </symbol>
  <symbol xmlns="http://www.w3.org/2000/svg" id="sad" viewBox="0 0 24 24">
    <path d="M12,0A12.013,12.013,0,0,0,0,12c.6,15.9,23.4,15.893,24,0A12.013,12.013,0,0,0,12,0Zm3.5,8a1.5,1.5,0,0,1,0,3A1.5,1.5,0,0,1,15.5,8ZM8,18a2,2,0,0,1-2-2c0-1.59,2-3.6,2-3.6s2,1.969,2,3.6A2,2,0,0,1,8,18Zm.5-7a1.5,1.5,0,0,1,0-3A1.5,1.5,0,0,1,8.5,11Zm7.836,6.747A7.517,7.517,0,0,0,12,16a5,5,0,0,0-.457-1.962c2.834-.409,6.172,2.151,6.123,2.216Z"></path>
  </symbol>
  <symbol xmlns="http://www.w3.org/2000/svg" id="surprise" viewBox="0 0 24 24">
    <path d="M12,0A12.013,12.013,0,0,0,0,12c.6,15.9,23.4,15.894,24,0A12.013,12.013,0,0,0,12,0ZM7,9.5a1.5,1.5,0,0,1,3,0A1.5,1.5,0,0,1,7,9.5ZM12,20a3,3,0,0,1,0-6A3,3,0,0,1,12,20Zm3.5-9a1.5,1.5,0,0,1,0-3A1.5,1.5,0,0,1,15.5,11Z"></path>
  </symbol>
</svg>